<?xml version="1.0" standalone="no"?>
<!DOCTYPE svg PUBLIC "-//W3C//DTD SVG 20010904//EN"
 "http://www.w3.org/TR/2001/REC-SVG-20010904/DTD/svg10.dtd">
<svg version="1.0" xmlns="http://www.w3.org/2000/svg"
 width="512.000000pt" height="274.000000pt" viewBox="0 0 512.000000 274.000000"
 preserveAspectRatio="xMidYMid meet">

<g transform="translate(0.000000,274.000000) scale(0.100000,-0.100000)"
fill="white" stroke="none">
<path d="M1202 2719 c-272 -32 -539 -152 -746 -337 -375 -334 -536 -852 -415
-1335 62 -249 179 -456 358 -634 226 -226 500 -358 813 -392 65 -7 683 -11
1861 -11 1940 0 1812 -4 1911 62 59 39 109 114 125 188 9 41 11 277 9 910 l-3
855 -23 50 c-31 68 -85 122 -157 156 l-60 29 -1245 0 -1246 0 -67 69 c-279
289 -705 437 -1115 390z m348 -174 c269 -47 463 -149 664 -347 l99 -98 1256 0
1257 0 44 -22 c86 -45 80 20 80 -943 0 -831 -1 -851 -20 -883 -11 -18 -34 -41
-52 -52 -33 -20 -49 -20 -1868 -17 l-1835 2 -85 23 c-160 43 -265 88 -385 167
-252 167 -436 428 -506 722 -27 112 -37 332 -20 440 82 518 467 915 980 1007
102 19 287 19 391 1z"/>
<path d="M1220 2384 c-252 -46 -449 -149 -605 -316 -367 -392 -367 -1004 0
-1396 132 -142 298 -240 499 -294 68 -19 107 -22 246 -22 193 0 274 17 429 90
162 76 283 173 384 309 237 319 274 721 97 1075 -102 205 -267 363 -481 464
-141 67 -237 88 -404 92 -77 1 -151 0 -165 -2z m260 -169 c269 -29 534 -227
655 -489 216 -467 -38 -1028 -531 -1175 -509 -151 -1034 197 -1093 727 -52
464 291 892 754 941 78 8 104 8 215 -4z"/>
<path d="M1263 2061 c-159 -26 -280 -88 -398 -206 -135 -135 -199 -290 -199
-485 0 -195 64 -350 199 -485 125 -125 242 -183 417 -206 138 -19 308 18 436
93 73 42 198 167 240 240 236 400 23 916 -425 1032 -74 19 -203 27 -270 17z
m165 -167 l31 -6 -38 -107 c-33 -92 -42 -106 -61 -106 -19 0 -28 14 -61 105
-21 58 -39 106 -39 107 -1 10 126 15 168 7z m-285 -171 c20 -60 37 -111 37
-114 0 -4 -7 -10 -16 -13 -11 -4 -54 15 -116 50 l-99 57 23 25 c27 29 117 102
126 102 4 0 24 -48 45 -107z m520 78 c23 -16 57 -45 75 -64 l33 -34 -101 -57
c-94 -54 -130 -63 -130 -35 0 13 73 219 78 219 2 0 22 -13 45 -29z m-661 -321
c65 -36 71 -42 62 -63 -4 -10 -36 -21 -97 -31 -51 -9 -102 -19 -114 -21 -20
-5 -23 -1 -23 25 0 17 7 63 16 101 l16 70 41 -24 c23 -14 68 -39 99 -57z m884
-62 l6 -57 -38 6 c-239 38 -247 49 -99 135 l99 58 13 -43 c7 -23 15 -68 19
-99z m-466 67 c37 -19 70 -74 70 -115 0 -41 -33 -96 -70 -115 -112 -58 -232
64 -175 176 32 61 113 86 175 54z m-320 -264 c8 -16 -1 -32 -56 -98 -37 -43
-70 -82 -76 -88 -6 -7 -16 -1 -29 15 -23 29 -82 140 -77 145 2 3 130 28 220
44 4 0 12 -8 18 -18z m660 -6 c52 -9 96 -18 98 -20 9 -8 -84 -165 -98 -165 -7
0 -128 141 -144 168 -10 17 13 44 33 38 9 -3 59 -12 111 -21z m-482 -249 l3
-119 -37 6 c-19 3 -63 19 -96 34 l-60 28 73 88 c54 66 78 87 93 85 20 -3 21
-10 24 -122z m281 37 l74 -88 -61 -28 c-33 -15 -76 -31 -96 -34 l-36 -6 0 115
c0 63 3 118 7 121 18 19 45 -1 112 -80z"/>
<path d="M2862 1848 c-37 -40 -405 -720 -405 -749 0 -18 64 -131 189 -330 104
-167 200 -316 212 -331 l24 -28 896 0 c949 1 915 -1 940 47 17 31 17 1335 0
1366 -25 48 9 46 -939 47 l-896 0 -21 -22z m406 -275 l3 -133 -136 0 -135 0 0
135 0 136 133 -3 132 -3 3 -132z m430 0 l3 -133 -136 0 -135 0 0 128 c0 71 3
132 7 136 4 3 63 5 132 4 l126 -3 3 -132z m432 2 l0 -135 -135 0 -135 0 0 128
c0 71 3 132 7 135 3 4 64 7 135 7 l128 0 0 -135z m430 0 l0 -135 -130 0 -130
0 0 135 0 135 130 0 130 0 0 -135z m-1732 -612 l-3 -167 -92 148 c-51 81 -93
153 -93 159 0 6 42 86 93 178 l92 168 3 -159 c1 -87 1 -234 0 -327z m442 177
l0 -130 -135 0 -135 0 0 130 0 130 135 0 135 0 0 -130z m430 0 l0 -130 -135 0
-135 0 0 130 0 130 135 0 135 0 0 -130z m430 0 l0 -130 -135 0 -135 0 0 130 0
130 135 0 135 0 0 -130z m430 0 l0 -130 -130 0 -130 0 0 130 0 130 130 0 130
0 0 -130z m-1292 -432 l-3 -133 -132 -3 -133 -3 0 136 0 135 135 0 136 0 -3
-132z m430 0 l-3 -133 -130 0 -130 0 -3 133 -3 132 136 0 136 0 -3 -132z m432
-3 l0 -136 -132 3 -133 3 -3 133 -3 132 136 0 135 0 0 -135z m430 0 l0 -135
-130 0 -130 0 0 135 0 135 130 0 130 0 0 -135z"/>
<path d="M3513 1628 c-28 -32 -34 -54 -22 -85 13 -35 37 -52 74 -53 65 0 101
60 71 118 -25 48 -88 58 -123 20z"/>
<path d="M4394 1636 c-68 -30 -57 -135 15 -151 78 -17 131 71 79 129 -30 32
-56 38 -94 22z"/>
<path d="M3525 1208 c-44 -25 -59 -83 -31 -120 31 -42 113 -40 136 2 23 44 10
95 -31 115 -33 18 -47 18 -74 3z"/>
<path d="M3070 760 c-49 -49 -10 -140 59 -140 37 0 81 44 81 80 0 15 -9 39
-21 54 -26 33 -88 37 -119 6z"/>
</g>
</svg>
