<?xml version="1.0" standalone="no"?>
<!DOCTYPE svg PUBLIC "-//W3C//DTD SVG 20010904//EN" "http://www.w3.org/TR/2001/REC-SVG-20010904/DTD/svg10.dtd">
<svg version="1.0" xmlns="http://www.w3.org/2000/svg"
 width="500.000000pt" height="500.000000pt" viewBox="0 0 500.000000 500.000000"
 preserveAspectRatio="xMidYMid meet">


<g transform="translate(0.000000,500.000000) scale(0.100000,-0.100000)" fill="#ada9a8" stroke="none">
    <circle cx="2500" cy="2500" r="2350" fill="white" />
    <circle cx="2500" cy="2500" r="1400" fill="#d3d1d0" />

    <path d="M2290 4984 c-316 -39 -490 -81 -712 -170 -770 -309 -1341 -983 -1512
    -1784 -38 -181 -50 -304 -50 -530 -1 -345 45 -598 160 -897 126 -327 308 -607
    559 -858 347 -348 747 -569 1230 -679 305 -70 780 -70 1067 -1 507 123 889
    333 1233 679 395 398 631 881 707 1446 16 121 16 496 0 620 -62 467 -239 886
    -529 1250 -145 182 -387 401 -593 535 -281 183 -644 319 -990 371 -101 15
    -493 27 -570 18z m535 -178 c97 -15 200 -36 279 -57 37 -10 38 -11 32 -47 -5
    -35 -102 -372 -108 -378 -2 -1 -35 6 -73 17 -251 69 -655 69 -917 -2 -44 -12
    -80 -20 -82 -18 -11 15 -116 393 -112 404 8 23 313 85 481 99 99 8 402 -3 500
    -18z m-108 -586 c783 -104 1399 -720 1504 -1505 17 -132 6 -424 -20 -550 -56
    -260 -168 -509 -320 -710 -69 -91 -226 -250 -316 -319 -218 -169 -457 -279
    -730 -336 -201 -43 -514 -38 -720 11 -198 47 -421 144 -587 256 -166 111 -357
    305 -470 474 -138 208 -248 499 -278 739 -12 98 -12 356 0 445 104 738 661
    1330 1385 1474 55 11 116 22 135 24 76 8 343 6 417 -3z m1437 -82 c16 -18 54
    -60 85 -93 203 -221 390 -552 484 -855 46 -146 64 -127 -173 -186 -113 -29
    -206 -52 -206 -51 -1 1 -16 49 -34 107 -83 271 -210 491 -421 729 -94 107 -99
    78 42 226 47 50 103 109 124 132 42 48 51 47 99 -9z m-3115 -113 c77 -80 141
    -149 141 -154 0 -5 -21 -31 -46 -57 -206 -216 -366 -490 -447 -766 l-32 -109
    -35 6 c-19 4 -111 25 -205 48 l-170 42 1 32 c2 37 44 175 87 283 61 155 165
    347 265 490 83 118 269 330 290 330 5 0 73 -65 151 -145z m3519 -2012 l204
    -48 -6 -35 c-7 -44 -58 -204 -93 -290 -66 -166 -188 -384 -298 -530 -79 -105
    -235 -280 -250 -280 -12 0 -286 280 -293 299 -1 5 18 30 44 57 213 224 380
    513 455 787 13 48 26 87 29 87 3 1 96 -21 208 -47z m-3879 -43 c73 -268 234
    -546 460 -790 28 -30 51 -59 51 -64 0 -5 -35 -45 -78 -90 -43 -44 -107 -112
    -143 -150 l-66 -69 -35 34 c-257 248 -475 604 -587 959 -50 156 -67 135 164
    195 110 29 203 53 206 54 4 0 17 -35 28 -79z m1381 -1315 c253 -66 647 -63
    902 6 44 12 80 20 82 18 2 -2 31 -94 64 -204 42 -142 56 -202 48 -207 -23 -13
    -213 -56 -326 -74 -84 -13 -173 -18 -330 -18 -216 0 -323 10 -500 50 -122 28
    -140 34 -140 50 0 9 26 103 57 210 42 145 60 193 70 190 8 -3 40 -13 73 -21z"/>
    <path d="M2365 4019 c-295 -31 -569 -138 -790 -308 -347 -266 -563 -667 -594
    -1101 -49 -702 380 -1341 1049 -1558 381 -124 772 -97 1135 78 430 208 730
    597 832 1080 26 121 26 459 0 580 -145 685 -674 1158 -1376 1229 -114 12 -140
    12 -256 0z m335 -184 c377 -57 715 -273 925 -590 95 -145 148 -265 193 -445
    24 -96 26 -122 26 -300 0 -147 -5 -213 -17 -269 -106 -463 -414 -824 -842
    -990 -183 -71 -263 -85 -485 -85 -178 0 -204 2 -300 26 -264 66 -470 182 -653
    365 -183 183 -299 389 -365 653 -24 96 -26 122 -26 300 0 178 2 204 26 300
    67 265 178 465 364 651 305 307 730 449 1154 384z"/>
</g>
</svg>
