<?xml version="1.0" standalone="no"?>
<!DOCTYPE svg PUBLIC "-//W3C//DTD SVG 20010904//EN"
 "http://www.w3.org/TR/2001/REC-SVG-20010904/DTD/svg10.dtd">
<svg version="1.0" xmlns="http://www.w3.org/2000/svg"
 width="459.000000pt" height="274.000000pt" viewBox="0 0 459.000000 274.000000"
 preserveAspectRatio="xMidYMid meet">

<g transform="translate(0.000000,274.000000) scale(0.100000,-0.100000)"
fill="white" stroke="none">
<path d="M1160 2709 c-599 -97 -1063 -574 -1141 -1174 -14 -109 -6 -310 16
-421 101 -490 443 -876 913 -1030 198 -65 175 -64 1348 -64 1177 0 1135 -2
1347 66 211 68 378 171 537 333 199 200 321 430 377 708 25 128 23 364 -6 500
-55 265 -170 487 -349 674 -185 195 -389 313 -667 387 l-100 27 -1110 1 c-612
1 -1135 -2 -1165 -7z m428 -341 l-3 -213 -185 -6 c-174 -6 -191 -8 -281 -38
l-96 -33 -217 109 -217 109 23 21 c38 35 159 112 223 143 88 41 237 89 329
104 45 8 159 14 254 15 l172 1 -2 -212z m1172 -3 l0 -215 -515 0 -515 0 0 215
0 215 515 0 515 0 0 -215z m657 200 c108 -18 251 -64 348 -113 74 -37 203
-120 222 -144 10 -11 -25 -32 -205 -122 l-217 -108 -95 33 c-95 33 -96 33
-327 37 l-233 4 0 214 0 214 208 0 c135 0 239 -5 299 -15z m-2736 -475 l201
-101 -66 -65 c-112 -112 -191 -257 -217 -394 -6 -36 -13 -71 -15 -77 -3 -10
-54 -13 -214 -13 l-210 0 0 34 c0 136 86 390 187 548 26 43 124 168 130 168 2
0 94 -45 204 -100z m3485 38 c132 -168 213 -349 249 -555 8 -47 15 -96 15
-110 l0 -23 -212 2 -211 3 -18 83 c-33 151 -110 291 -219 399 l-63 61 199 101
c109 55 202 100 205 100 3 1 28 -27 55 -61z m-818 -134 c42 -8 115 -34 162
-56 163 -78 294 -243 336 -425 20 -87 20 -213 -1 -294 -57 -221 -227 -397
-450 -466 -57 -17 -119 -18 -1100 -18 -981 0 -1043 1 -1100 18 -110 34 -195
86 -281 172 -129 128 -185 263 -185 450 0 176 55 309 186 441 65 66 96 89 165
122 47 22 110 45 140 51 30 6 64 13 75 15 11 2 460 4 998 5 851 1 988 -1 1055
-15z m-2752 -764 c33 -175 129 -342 258 -451 l31 -27 -204 -102 -204 -102 -34
39 c-90 104 -184 273 -226 409 -28 88 -57 229 -57 275 l0 29 212 -2 212 -3 12
-65z m3834 41 c0 -92 -61 -312 -117 -426 -38 -76 -125 -210 -172 -263 l-29
-33 -202 101 -202 101 69 72 c39 40 86 97 106 127 44 68 94 191 108 268 6 31
13 63 15 70 2 9 54 12 214 12 l210 0 0 -29z m-3352 -627 c80 -33 169 -47 337
-53 l170 -6 0 -210 0 -210 -155 -3 c-179 -3 -303 13 -444 59 -132 43 -296 132
-374 203 l-23 20 213 108 c117 59 219 107 226 107 7 1 29 -6 50 -15z m2710
-92 l213 -108 -23 -20 c-73 -66 -234 -155 -358 -197 -150 -51 -210 -59 -467
-64 l-243 -5 0 216 0 216 183 0 c207 0 290 10 385 44 37 13 74 24 82 24 8 1
111 -47 228 -106z m-1028 -177 l0 -215 -515 0 -515 0 0 215 0 215 515 0 515 0
0 -215z"/>
</g>
</svg>
